<svg width="240" height="40" viewBox="0 0 240 40" fill="none" xmlns="http://www.w3.org/2000/svg">
<rect x="0.5" y="0.5" width="239" height="39" rx="19.5" stroke="white"/>
<path d="M53.623 19.2148H50.8203L50.8066 18.5039H53.2197C53.7119 18.5039 54.1312 18.4333 54.4775 18.292C54.8239 18.1507 55.0859 17.9411 55.2637 17.6631C55.446 17.3805 55.5371 17.0342 55.5371 16.624C55.5371 16.2048 55.4482 15.8584 55.2705 15.585C55.0928 15.307 54.8262 15.1019 54.4707 14.9697C54.1152 14.8376 53.6686 14.7715 53.1309 14.7715H51.0391V24H50.1982V14.0469H53.1309C53.6367 14.0469 54.0902 14.097 54.4912 14.1973C54.8923 14.2975 55.234 14.4548 55.5166 14.6689C55.7992 14.8831 56.0133 15.1543 56.1592 15.4824C56.3096 15.806 56.3848 16.1934 56.3848 16.6445C56.3848 17.0547 56.2936 17.4261 56.1113 17.7588C55.929 18.0869 55.6715 18.3558 55.3389 18.5654C55.0107 18.7705 54.6165 18.8981 54.1562 18.9482L53.623 19.2148ZM53.5615 24H50.5537L50.9844 23.2822H53.5615C54.0537 23.2822 54.473 23.2002 54.8193 23.0361C55.1702 22.8675 55.4391 22.6283 55.626 22.3184C55.8128 22.0085 55.9062 21.6393 55.9062 21.2109C55.9062 20.8327 55.8242 20.4932 55.6602 20.1924C55.4961 19.8916 55.2454 19.6546 54.9082 19.4814C54.571 19.3037 54.1426 19.2148 53.623 19.2148H51.8799L51.8936 18.5039H54.3613L54.5117 18.7568C54.9583 18.8024 55.348 18.9414 55.6807 19.1738C56.0179 19.4017 56.2777 19.6911 56.46 20.042C56.6468 20.3929 56.7402 20.778 56.7402 21.1973C56.7402 21.7988 56.6058 22.3092 56.3369 22.7285C56.0726 23.1432 55.7012 23.46 55.2227 23.6787C54.7487 23.8929 54.195 24 53.5615 24ZM61.8604 20.5889H59.2627L59.249 19.9053H61.4639C61.9105 19.9053 62.2819 19.8574 62.5781 19.7617C62.8789 19.6615 63.1045 19.5133 63.2549 19.3174C63.4098 19.1214 63.4873 18.8799 63.4873 18.5928C63.4873 18.374 63.4417 18.1826 63.3506 18.0186C63.264 17.8545 63.1318 17.7201 62.9541 17.6152C62.7809 17.5104 62.5622 17.4329 62.2979 17.3828C62.0381 17.3281 61.735 17.3008 61.3887 17.3008H59.4951V24H58.6816V16.6035H61.3887C61.8398 16.6035 62.2432 16.6445 62.5986 16.7266C62.9587 16.804 63.2663 16.9225 63.5215 17.082C63.7767 17.2415 63.9704 17.4466 64.1025 17.6973C64.2393 17.9434 64.3076 18.235 64.3076 18.5723C64.3076 18.8001 64.2643 19.0143 64.1777 19.2148C64.0911 19.4108 63.9635 19.5885 63.7949 19.748C63.6309 19.903 63.4281 20.0306 63.1865 20.1309C62.945 20.2266 62.667 20.2858 62.3525 20.3086L61.8604 20.5889ZM61.8604 24H59.0098L59.3242 23.3027H61.8604C62.2705 23.3027 62.6191 23.2503 62.9062 23.1455C63.1934 23.0407 63.4098 22.8857 63.5557 22.6807C63.7061 22.4756 63.7812 22.2272 63.7812 21.9355C63.7812 21.6621 63.7061 21.4251 63.5557 21.2246C63.4098 21.0241 63.1934 20.8691 62.9062 20.7598C62.6191 20.6458 62.2705 20.5889 61.8604 20.5889H59.9736L59.9873 19.9053H62.4141L62.7627 20.165C63.1364 20.1969 63.46 20.2972 63.7334 20.4658C64.0068 20.6344 64.2188 20.8486 64.3691 21.1084C64.5195 21.3636 64.5947 21.6439 64.5947 21.9492C64.5947 22.2865 64.5309 22.585 64.4033 22.8447C64.2757 23.0999 64.0911 23.3141 63.8496 23.4873C63.6126 23.6559 63.3255 23.7835 62.9883 23.8701C62.651 23.9567 62.2751 24 61.8604 24ZM69.2842 24.1367C68.8011 24.1367 68.3568 24.0479 67.9512 23.8701C67.5501 23.6924 67.1992 23.4417 66.8984 23.1182C66.6022 22.7946 66.3721 22.4118 66.208 21.9697C66.0485 21.5231 65.9688 21.0355 65.9688 20.5068V20.2129C65.9688 19.6432 66.0531 19.1283 66.2217 18.668C66.3903 18.2077 66.6227 17.8135 66.9189 17.4854C67.2152 17.1572 67.5524 16.9066 67.9307 16.7334C68.3135 16.5557 68.7145 16.4668 69.1338 16.4668C69.6032 16.4668 70.0202 16.5511 70.3848 16.7197C70.7493 16.8838 71.0547 17.1185 71.3008 17.4238C71.5514 17.7246 71.7406 18.0824 71.8682 18.4971C71.9958 18.9072 72.0596 19.3607 72.0596 19.8574V20.3564H66.4609V19.6592H71.2461V19.5635C71.237 19.1488 71.1527 18.7614 70.9932 18.4014C70.8382 18.0368 70.6058 17.7406 70.2959 17.5127C69.986 17.2848 69.5986 17.1709 69.1338 17.1709C68.7874 17.1709 68.4684 17.2438 68.1768 17.3896C67.8896 17.5355 67.6413 17.7451 67.4316 18.0186C67.2266 18.2874 67.0671 18.6087 66.9531 18.9824C66.8438 19.3516 66.7891 19.7617 66.7891 20.2129V20.5068C66.7891 20.917 66.8483 21.2998 66.9668 21.6553C67.0898 22.0062 67.263 22.3161 67.4863 22.585C67.7142 22.8538 67.9831 23.0635 68.293 23.2139C68.6029 23.3643 68.9447 23.4395 69.3184 23.4395C69.7559 23.4395 70.1432 23.3597 70.4805 23.2002C70.8177 23.0361 71.1208 22.7786 71.3896 22.4277L71.9023 22.8242C71.7428 23.0612 71.5423 23.2799 71.3008 23.4805C71.0638 23.681 70.779 23.8405 70.4463 23.959C70.1136 24.0775 69.7262 24.1367 69.2842 24.1367ZM74.9854 16.6035H75.7988L75.6758 19.2695C75.6439 19.9805 75.5641 20.598 75.4365 21.1221C75.3135 21.6416 75.1608 22.0859 74.9785 22.4551C74.7962 22.8197 74.5957 23.1273 74.377 23.3779C74.1628 23.624 73.944 23.8314 73.7207 24H73.2764L73.29 23.3027L73.4951 23.2959C73.6273 23.1364 73.764 22.9564 73.9053 22.7559C74.0511 22.5508 74.1901 22.3001 74.3223 22.0039C74.4544 21.7077 74.5684 21.3385 74.6641 20.8965C74.7598 20.4544 74.8236 19.9121 74.8555 19.2695L74.9854 16.6035ZM75.252 16.6035H79.3467V24H78.5332V17.3691H75.252V16.6035ZM72.9619 23.2959H80.1191V26.1738H79.2988V24H73.7412V26.1738H72.9619V23.2959ZM82.5596 22.6738L86.5586 16.6035H87.3789V24H86.5586V17.9297L82.5596 24H81.7529V16.6035H82.5596V22.6738ZM92.1846 16.6035V24H91.3711V16.6035H92.1846ZM94.8779 16.6035V17.3008H88.7734V16.6035H94.8779ZM98.542 24.1367C98.0589 24.1367 97.6146 24.0479 97.209 23.8701C96.8079 23.6924 96.457 23.4417 96.1562 23.1182C95.86 22.7946 95.6299 22.4118 95.4658 21.9697C95.3063 21.5231 95.2266 21.0355 95.2266 20.5068V20.2129C95.2266 19.6432 95.3109 19.1283 95.4795 18.668C95.6481 18.2077 95.8805 17.8135 96.1768 17.4854C96.473 17.1572 96.8102 16.9066 97.1885 16.7334C97.5713 16.5557 97.9723 16.4668 98.3916 16.4668C98.861 16.4668 99.278 16.5511 99.6426 16.7197C100.007 16.8838 100.312 17.1185 100.559 17.4238C100.809 17.7246 100.998 18.0824 101.126 18.4971C101.254 18.9072 101.317 19.3607 101.317 19.8574V20.3564H95.7188V19.6592H100.504V19.5635C100.495 19.1488 100.41 18.7614 100.251 18.4014C100.096 18.0368 99.8636 17.7406 99.5537 17.5127C99.2438 17.2848 98.8564 17.1709 98.3916 17.1709C98.0452 17.1709 97.7262 17.2438 97.4346 17.3896C97.1475 17.5355 96.8991 17.7451 96.6895 18.0186C96.4844 18.2874 96.3249 18.6087 96.2109 18.9824C96.1016 19.3516 96.0469 19.7617 96.0469 20.2129V20.5068C96.0469 20.917 96.1061 21.2998 96.2246 21.6553C96.3477 22.0062 96.5208 22.3161 96.7441 22.585C96.972 22.8538 97.2409 23.0635 97.5508 23.2139C97.8607 23.3643 98.2025 23.4395 98.5762 23.4395C99.0137 23.4395 99.401 23.3597 99.7383 23.2002C100.076 23.0361 100.379 22.7786 100.647 22.4277L101.16 22.8242C101.001 23.0612 100.8 23.2799 100.559 23.4805C100.322 23.681 100.037 23.8405 99.7041 23.959C99.3714 24.0775 98.984 24.1367 98.542 24.1367ZM111.359 16.6035V17.3145H107.032V16.6035H111.359ZM107.217 16.6035V24H106.403V16.6035H107.217ZM112.029 16.6035V24H111.209V16.6035H112.029ZM113.772 20.418V20.1924C113.772 19.6546 113.85 19.1579 114.005 18.7021C114.16 18.2464 114.381 17.8522 114.668 17.5195C114.96 17.1868 115.308 16.9294 115.714 16.7471C116.119 16.5602 116.571 16.4668 117.067 16.4668C117.569 16.4668 118.022 16.5602 118.428 16.7471C118.833 16.9294 119.182 17.1868 119.474 17.5195C119.765 17.8522 119.989 18.2464 120.144 18.7021C120.299 19.1579 120.376 19.6546 120.376 20.1924V20.418C120.376 20.9557 120.299 21.4525 120.144 21.9082C119.989 22.3594 119.765 22.7513 119.474 23.084C119.187 23.4167 118.84 23.6764 118.435 23.8633C118.029 24.0456 117.578 24.1367 117.081 24.1367C116.58 24.1367 116.126 24.0456 115.721 23.8633C115.315 23.6764 114.966 23.4167 114.675 23.084C114.383 22.7513 114.16 22.3594 114.005 21.9082C113.85 21.4525 113.772 20.9557 113.772 20.418ZM114.586 20.1924V20.418C114.586 20.8236 114.641 21.2087 114.75 21.5732C114.859 21.9333 115.019 22.2546 115.229 22.5371C115.438 22.8151 115.698 23.0339 116.008 23.1934C116.318 23.3529 116.675 23.4326 117.081 23.4326C117.482 23.4326 117.835 23.3529 118.141 23.1934C118.451 23.0339 118.71 22.8151 118.92 22.5371C119.13 22.2546 119.287 21.9333 119.392 21.5732C119.501 21.2087 119.556 20.8236 119.556 20.418V20.1924C119.556 19.7913 119.501 19.4108 119.392 19.0508C119.287 18.6908 119.127 18.3695 118.913 18.0869C118.703 17.8044 118.444 17.5811 118.134 17.417C117.824 17.2529 117.468 17.1709 117.067 17.1709C116.666 17.1709 116.311 17.2529 116.001 17.417C115.696 17.5811 115.436 17.8044 115.222 18.0869C115.012 18.3695 114.853 18.6908 114.743 19.0508C114.638 19.4108 114.586 19.7913 114.586 20.1924ZM127.328 16.6035V24H126.515V16.6035H127.328ZM127.048 19.96V20.6641C126.838 20.7643 126.597 20.86 126.323 20.9512C126.054 21.0423 125.77 21.1175 125.469 21.1768C125.173 21.2314 124.876 21.2588 124.58 21.2588C123.969 21.2588 123.452 21.1699 123.028 20.9922C122.609 20.8145 122.292 20.5228 122.078 20.1172C121.864 19.707 121.757 19.1602 121.757 18.4766V16.5967H122.57V18.4766C122.57 19.0007 122.643 19.4154 122.789 19.7207C122.935 20.0215 123.156 20.2357 123.452 20.3633C123.748 20.4909 124.124 20.5547 124.58 20.5547C124.895 20.5456 125.207 20.5137 125.517 20.459C125.826 20.3997 126.114 20.3268 126.378 20.2402C126.647 20.1491 126.87 20.0557 127.048 19.96ZM132.134 16.6035V24H131.32V16.6035H132.134ZM134.827 16.6035V17.3008H128.723V16.6035H134.827ZM138.457 23.2617L140.761 16.6035H141.643L138.512 25.1895C138.448 25.3581 138.366 25.5449 138.266 25.75C138.17 25.9551 138.042 26.151 137.883 26.3379C137.728 26.5293 137.532 26.6842 137.295 26.8027C137.062 26.9258 136.778 26.9873 136.44 26.9873C136.354 26.9873 136.242 26.9759 136.105 26.9531C135.973 26.9349 135.878 26.9167 135.818 26.8984L135.812 26.208C135.862 26.2217 135.935 26.2331 136.03 26.2422C136.126 26.2513 136.192 26.2559 136.229 26.2559C136.525 26.2559 136.773 26.2057 136.974 26.1055C137.179 26.0052 137.35 25.8548 137.486 25.6543C137.623 25.4583 137.744 25.2122 137.849 24.916L138.457 23.2617ZM136.304 16.6035L138.662 22.9541L138.881 23.8086L138.286 24.1436L135.415 16.6035H136.304Z" fill="#737373"/>
<path d="M20.8499 12H35.8278C36.8575 12 37.7 12.9 37.7 14V26C37.7 27.1 36.8575 28 35.8278 28H20.8499C19.8202 28 18.9777 27.1 18.9777 26V14C18.9777 12.9 19.8202 12 20.8499 12Z" stroke="white" stroke-linecap="round" stroke-linejoin="round"/>
<path d="M37.7 14L28.3388 21L18.9777 14" stroke="white" stroke-linecap="round" stroke-linejoin="round"/>
<path d="M209 14.1785L220 24.8215" stroke="white" stroke-width="1.5" stroke-linecap="round"/>
<path d="M211.75 24.8213L220 24.8213" stroke="white" stroke-width="1.5" stroke-linecap="round"/>
<path d="M220 24.8213L220 17.2367" stroke="white" stroke-width="1.5" stroke-linecap="round"/>
</svg>
