<svg width="134" height="61" viewBox="0 0 134 61" fill="none" xmlns="http://www.w3.org/2000/svg">
<path d="M60.9 9.765L60.815 50.395C60.815 57.62 64.045 59.83 64.045 59.83H48.405C48.405 59.83 51.55 57.79 51.55 50.395V9.765C51.55 8.235 51.465 6.96 51.21 5.855C50.53 7.045 49.765 8.49 49.085 10.275L30.555 59.83H25.71L7.01 9.765C6.415 8.32 5.82 6.96 5.225 5.94C4.97 7.13 4.8 8.575 4.8 10.275V49.885C4.8 57.705 8.03 59.83 8.03 59.83H0.125C0.125 59.83 3.355 57.79 3.355 49.885V10.275C3.355 2.37 0.125 0.329998 0.125 0.329998H16.02C16.02 0.329998 13.555 2.625 16.275 9.765L32 51.84L47.64 10.275C50.615 2.455 48.15 0.329998 48.15 0.329998H64.045C64.045 0.329998 60.9 2.625 60.9 9.765ZM87.5854 25.065C109.175 25.065 116.315 32.035 116.315 42.66C116.315 53.285 107.985 60 95.3204 60H67.6104C67.6104 60 70.8404 57.96 70.8404 50.565V9.935C70.8404 2.54 67.6104 0.499996 67.6104 0.499996H80.0204L80.1054 25.065H87.5854ZM130 50.65C130 57.875 133.23 60.085 133.23 60.085H117.505C117.505 60.085 120.735 58.045 120.735 50.735V10.02C120.735 2.625 117.505 0.584995 117.505 0.584995H133.23C133.23 0.584995 130 2.88 130 10.02V50.65ZM89.7954 59.15C99.9954 59.15 107.05 55.41 107.05 42.745C107.05 30.08 99.4004 26 89.2004 26C88.5204 26 84.4404 26.085 80.1054 26.085V59.15H89.7954Z" fill="#1C1C1C"/>
</svg>
